<?xml version="1.0" standalone="no"?>
<!DOCTYPE svg PUBLIC "-//W3C//DTD SVG 20010904//EN" "http://www.w3.org/TR/2001/REC-SVG-20010904/DTD/svg10.dtd">
<svg version="1.0" xmlns="http://www.w3.org/2000/svg" width="554.000000pt" height="181.000000pt"
        viewBox="0 0 554.000000 181.000000" preserveAspectRatio="xMidYMid meet">

        <rect width="100%" height="100%" fill="#E1E1FF" />

        <g transform="translate(0.000000,181.000000) scale(0.100000,-0.100000)" fill="#000000" stroke="none">
                <path d="M3667 1256 c-98 -27 -157 -101 -157 -198 0 -129 60 -187 235 -228
135 -31 165 -53 165 -120 0 -22 -9 -41 -29 -61 -26 -26 -36 -29 -93 -29 -77 0
-137 25 -185 77 l-35 37 -34 -40 c-48 -56 -51 -71 -17 -106 62 -66 192 -106
309 -95 157 15 244 109 232 252 -11 122 -66 169 -246 211 -129 30 -162 51
-162 104 0 81 133 113 242 59 20 -10 39 -23 43 -29 3 -5 10 -10 15 -10 9 0 80
88 80 99 0 3 -18 18 -39 33 -75 53 -218 72 -324 44z" />
                <path d="M4374 1259 c-67 -16 -146 -69 -182 -123 -47 -71 -66 -144 -66 -256 1
-158 48 -267 141 -330 65 -42 114 -55 218 -54 99 0 167 23 232 78 108 92 145
355 71 512 -31 68 -103 137 -163 158 -60 21 -194 29 -251 15z m189 -133 c80
-34 111 -103 111 -246 0 -125 -20 -181 -79 -226 -31 -23 -50 -29 -105 -32
-146 -9 -213 73 -214 258 0 134 39 219 114 249 37 14 136 13 173 -3z" />
                <path d="M750 880 l0 -380 245 0 245 0 0 60 0 60 -170 0 -170 0 0 320 0 320
-75 0 -75 0 0 -380z" />
                <path d="M2900 881 l0 -381 70 0 69 0 3 143 3 142 120 5 c136 6 174 19 222 73
43 49 56 95 51 182 -3 62 -8 80 -33 116 -18 26 -50 53 -80 68 -47 25 -59 26
-237 29 l-188 4 0 -381z m359 234 c38 -33 50 -95 27 -149 -21 -49 -62 -66
-166 -66 l-80 0 0 120 0 120 94 0 c87 0 97 -2 125 -25z" />
                <path d="M1577 1210 c-107 -27 -204 -107 -254 -208 -25 -51 -28 -68 -28 -157
0 -89 3 -107 29 -162 66 -145 224 -235 379 -219 74 7 168 50 220 98 40 38 46
58 21 82 -22 23 -36 20 -80 -18 -59 -50 -102 -69 -175 -74 -85 -6 -152 16
-213 69 -126 111 -135 301 -18 423 111 116 310 116 411 0 47 -53 68 -102 96
-221 32 -137 62 -198 125 -257 78 -73 147 -100 250 -100 118 0 185 27 266 108
81 82 107 147 108 271 0 82 -3 96 -32 157 -40 82 -119 157 -200 189 -86 35
-217 33 -292 -2 -66 -31 -130 -84 -130 -108 0 -47 47 -53 98 -11 113 90 283
80 388 -24 60 -60 84 -121 84 -210 0 -111 -60 -204 -162 -255 -139 -70 -304
-16 -373 119 -14 27 -36 96 -49 154 -31 128 -55 182 -113 246 -63 70 -152 112
-246 116 -40 2 -89 -1 -110 -6z" />
        </g>
</svg>